#N canvas 658 204 525 410 10;
#X obj 5 59 nbx 5 14 0 127 0 1 \$0/drive \$1/drive drive 0 -6 0 8 -260818
-1 -1 0 256;
#X obj 4 32 nbx 5 14 0 127 0 1 \$0/push \$1/push push 0 -6 0 8 -260818
-1 -1 0 256;
#X obj 270 29 sssad/auto \$0/push \$1/push;
#X obj 270 51 sssad/auto \$0/drive \$1/drive;
#X obj 4 88 inlet~;
#X obj 23 375 outlet~;
#X obj 144 146 r \$0/drive;
#X obj 144 187 + 1;
#X obj 55 237 *~;
#X text 156 372 based on the source code of the foldover ladspa plugin
by steve harris;
#X obj 70 216 +~;
#X text 218 173 < drive_p;
#X text 89 239 < "x";
#X obj 23 335 -~;
#X obj 22 271 *~ 1.5;
#X obj 97 271 *~ 0.5;
#X obj 97 292 *~;
#X obj 97 311 *~;
#X text 30 299 1.5 * x;
#X text 135 297 0.5 * x * x * x;
#X obj 70 166 r \$0/push;
#X obj 70 187 / 127;
#X obj 144 167 / 127;
#N canvas 387 61 450 300 normalize 1;
#X obj 10 9 inlet~;
#X obj 10 267 outlet~;
#X obj 10 30 env~;
#X obj 10 51 dbtopow;
#X obj 10 72 * 2;
#X connect 0 0 2 0;
#X connect 2 0 3 0;
#X connect 3 0 4 0;
#X connect 4 0 1 0;
#X restore 38 113 pd normalize;
#X obj 23 356 *~;
#X obj 5 148 /~;
#X connect 4 0 23 0;
#X connect 4 0 25 0;
#X connect 6 0 22 0;
#X connect 7 0 10 1;
#X connect 8 0 14 0;
#X connect 8 0 15 0;
#X connect 8 0 16 1;
#X connect 8 0 17 1;
#X connect 10 0 8 1;
#X connect 13 0 24 0;
#X connect 14 0 13 0;
#X connect 15 0 16 0;
#X connect 16 0 17 0;
#X connect 17 0 13 1;
#X connect 20 0 21 0;
#X connect 21 0 10 0;
#X connect 22 0 7 0;
#X connect 23 0 25 1;
#X connect 23 0 24 1;
#X connect 24 0 5 0;
#X connect 25 0 8 0;
#X coords 0 -1 1 1 85 80 1 0 0;
