#N canvas 329 105 310 424 10;
#X obj 36 41 env~;
#X obj 36 64 dbtorms;
#X obj 35 291 line~;
#X obj 17 319 *~;
#X obj 17 341 outlet~;
#X obj 18 18 inlet~;
#X obj 35 185 /;
#X msg 35 163 1;
#X obj 36 85 t f f;
#X obj 36 108 moses 0.05;
#X obj 35 141 t b f f;
#X obj 35 267 pack f 10;
#X obj 86 194 sel 0 1;
#X obj 140 172 s-default \$1 10;
#X msg 140 194 set \$1;
#X obj 100 341 outlet~;
#X msg 86 231 10;
#X obj 86 172 < 1;
#X text 75 15 args: rise-time;
#X msg 141 140 set \$1;
#X msg 118 231 10;
#X obj 141 118 s-default \$2 10;
#X connect 0 0 1 0;
#X connect 1 0 8 0;
#X connect 2 0 3 1;
#X connect 2 0 15 0;
#X connect 3 0 4 0;
#X connect 5 0 0 0;
#X connect 5 0 3 0;
#X connect 6 0 11 0;
#X connect 7 0 6 0;
#X connect 8 0 9 0;
#X connect 9 1 10 0;
#X connect 10 0 7 0;
#X connect 10 1 6 1;
#X connect 10 2 17 0;
#X connect 11 0 2 0;
#X connect 12 0 16 0;
#X connect 12 1 20 0;
#X connect 13 0 14 0;
#X connect 14 0 20 0;
#X connect 16 0 11 1;
#X connect 17 0 12 0;
#X connect 19 0 16 0;
#X connect 20 0 11 1;
#X connect 21 0 19 0;
