#N canvas 33 39 1183 658 10;
#N canvas 505 106 622 480 presets 0;
#X obj 43 5 inlet;
#X obj 43 69 list trim;
#X obj 43 25 list append \$0;
#X obj 43 47 list append \$1;
#X msg 42 130 \; \$1/param2 22050 \; \$1/param5 0.75 \; \$1/param6
0.625 \; \$1/param7 0.7 \; \$1/param8 0.5 \;;
#X msg 42 228 \; \$1/param2 10000 \; \$1/param5 0.685 \; \$1/param6
0.779 \; \$1/param7 0.74 \; \$1/param8 0.68 \;;
#X msg 171 228 \; \$1/param2 10000 \; \$1/param5 0.685 \; \$1/param6
0.779 \; \$1/param7 0.889 \; \$1/param8 0.84 \;;
#X msg 302 228 \; \$1/param2 22050 \; \$1/param5 0.850394 \; \$1/param6
0.92126 \; \$1/param7 0.80315 \; \$1/param8 0.818898 \;;
#X obj 42 93 route default large huge tadada;
#X connect 0 0 2 0;
#X connect 1 0 8 0;
#X connect 2 0 3 0;
#X connect 3 0 1 0;
#X connect 8 0 4 0;
#X connect 8 1 5 0;
#X connect 8 2 6 0;
#X connect 8 3 7 0;
#X restore 1048 623 pd presets;
#X msg 1048 530 default;
#X msg 1048 576 huge;
#N canvas 505 91 600 322 output 0;
#X obj 54 36 inlet~;
#X obj 161 21 inlet~;
#X obj 212 21 inlet~;
#X obj 54 146 *~ 1;
#X obj 160 114 *~ 1;
#X obj 211 112 *~ 1;
#X obj 161 208 outlet~;
#X obj 211 187 outlet~;
#X obj 273 78 / 127;
#X obj 273 57 line;
#X msg 273 36 \$1 3;
#X obj 77 125 / 127;
#X obj 77 104 line;
#X msg 77 82 \$1 3;
#X obj 273 15 r \$0/wet;
#X obj 77 61 r \$0/dry;
#X connect 0 0 3 0;
#X connect 1 0 4 0;
#X connect 2 0 5 0;
#X connect 3 0 6 0;
#X connect 3 0 7 0;
#X connect 4 0 6 0;
#X connect 5 0 7 0;
#X connect 8 0 5 1;
#X connect 8 0 4 1;
#X connect 9 0 8 0;
#X connect 10 0 9 0;
#X connect 11 0 3 1;
#X connect 12 0 11 0;
#X connect 13 0 12 0;
#X connect 14 0 10 0;
#X connect 15 0 13 0;
#X restore 15 580 pd output;
#X msg 1048 553 large;
#X text 1026 505 some presets:;
#X text 713 66 jon~ - Reverb abstraction based on "Simplified plate-class
reverberation topology in the style of Griesinger" from the article
"Effect Design \, Part 1: Reverberator and Other Filters" by Jon Dattorro.
;
#X msg 1048 599 tadada;
#N canvas 66 24 387 608 receive_\$0/params 0;
#X msg 126 293 input_diffusion1 \$1;
#X msg 138 349 input_diffusion2 \$1;
#X msg 146 410 decay_diffusion1 \$1;
#X msg 155 469 decay_diffusion2 \$1;
#X msg 33 75 predelay \$1;
#X msg 52 132 bandwidth \$1;
#X msg 73 183 damping \$1;
#X msg 101 238 decay \$1;
#X msg 193 533 excursion \$1;
#X obj 33 581 outlet;
#X obj 33 48 r \$0.predelay;
#X obj 52 105 r \$0.bandwidth;
#X obj 73 159 r \$0.damping;
#X obj 126 267 r \$0.input_diffusion1;
#X obj 138 322 r \$0.input_diffusion2;
#X obj 146 383 r \$0.decay_diffusion1;
#X obj 155 442 r \$0.decay_diffusion2;
#X obj 193 503 r \$0.excursion;
#X obj 101 213 r \$0.decay_time;
#X connect 0 0 9 0;
#X connect 1 0 9 0;
#X connect 2 0 9 0;
#X connect 3 0 9 0;
#X connect 4 0 9 0;
#X connect 5 0 9 0;
#X connect 6 0 9 0;
#X connect 7 0 9 0;
#X connect 8 0 9 0;
#X connect 10 0 4 0;
#X connect 11 0 5 0;
#X connect 12 0 6 0;
#X connect 13 0 0 0;
#X connect 14 0 1 0;
#X connect 15 0 2 0;
#X connect 16 0 3 0;
#X connect 17 0 8 0;
#X connect 18 0 7 0;
#X restore 88 484 pd receive_\$0/params;
#X obj 163 6 namecanvas \$0/jonverb;
#X text 714 9 This reverb was implemented by Anton Hornquist. I have
left his original comments in the paragraph below. Any mistakes are
my own.;
#X obj 15 484 inlet~;
#X obj 72 626 outlet~;
#X floatatom 852 221 10 0 0 0 - #0/param3 #0.damping;
#X floatatom 852 252 10 0 0 0 - #0/param4 #0.decay_time;
#X floatatom 852 157 10 0 0 0 - #0/param1 #0.predelay;
#X floatatom 852 189 10 0 0 0 - #0/param2 #0.bandwidth;
#X floatatom 851 320 10 0 0 0 - #0/param6 #0.input_diffusion2;
#X floatatom 852 285 10 0 0 0 - #0/param5 #0.input_diffusion1;
#X floatatom 850 384 10 0 0 0 - #0/param8 #0.decay_diffusion2;
#X floatatom 851 351 10 0 0 0 - #0/param7 #0.decay_diffusion1;
#X floatatom 850 416 10 0 0 0 - #0/param9 #0.excursion;
#X obj 14 626 outlet~;
#N canvas 434 211 450 358 jon~ 0;
#X obj 24 32 inlet~;
#X obj 27 282 outlet~;
#X obj 135 282 outlet~;
#N canvas 0 166 634 506 input_diffusion 0;
#X obj 30 60 inlet~;
#X obj 29 295 outlet~;
#X obj 337 79 r \$0-input_diffusion1;
#X obj 336 170 r \$0-input_diffusion2;
#N canvas 393 17 574 578 allpass 0;
#X obj 56 127 inlet~;
#X obj 56 400 +~;
#X obj 427 232 loadbang;
#X obj 417 286 t f f;
#X obj 417 310 *;
#X obj 417 334 expr 1-$f1;
#X obj 253 364 *~;
#X obj 232 394 +~;
#X obj 114 177 * -1;
#X obj 88 207 *~;
#X obj 232 426 outlet~;
#X obj 417 129 inlet;
#X obj 114 117 loadbang;
#X obj 75 365 *~ -1;
#X obj 201 364 *~ -1;
#X obj 114 149 f 0.75;
#X obj 417 262 f 0.75;
#X obj 56 491 delwrite~ \$0-tap_13_14 200;
#X obj 252 262 *~ 0.75;
#X obj 252 53 delread~ \$0-tap_13_14 4.77134;
#X connect 0 0 1 0;
#X connect 0 0 9 0;
#X connect 1 0 17 0;
#X connect 2 0 16 0;
#X connect 3 0 4 0;
#X connect 3 1 4 1;
#X connect 4 0 5 0;
#X connect 5 0 6 1;
#X connect 6 0 7 1;
#X connect 7 0 10 0;
#X connect 8 0 9 1;
#X connect 9 0 14 0;
#X connect 11 0 15 0;
#X connect 11 0 16 0;
#X connect 11 0 18 1;
#X connect 12 0 15 0;
#X connect 13 0 1 1;
#X connect 14 0 7 0;
#X connect 15 0 8 0;
#X connect 16 0 3 0;
#X connect 18 0 6 0;
#X connect 18 0 13 0;
#X connect 19 0 18 0;
#X restore 30 99 pd allpass tap_13_14;
#N canvas 314 10 579 582 allpass 0;
#X obj 56 127 inlet~;
#X obj 56 400 +~;
#X obj 427 232 loadbang;
#X obj 417 286 t f f;
#X obj 417 310 *;
#X obj 417 334 expr 1-$f1;
#X obj 253 364 *~;
#X obj 232 394 +~;
#X obj 114 177 * -1;
#X obj 88 207 *~;
#X obj 232 426 outlet~;
#X obj 417 129 inlet;
#X obj 114 117 loadbang;
#X obj 75 365 *~ -1;
#X obj 201 364 *~ -1;
#X obj 114 149 f 0.75;
#X obj 417 262 f 0.75;
#X obj 252 262 *~ 0.75;
#X obj 56 491 delwrite~ \$0-tap_19_20 200;
#X obj 252 53 delread~ \$0-tap_19_20 3.5953;
#X connect 0 0 1 0;
#X connect 0 0 9 0;
#X connect 1 0 18 0;
#X connect 2 0 16 0;
#X connect 3 0 4 0;
#X connect 3 1 4 1;
#X connect 4 0 5 0;
#X connect 5 0 6 1;
#X connect 6 0 7 1;
#X connect 7 0 10 0;
#X connect 8 0 9 1;
#X connect 9 0 14 0;
#X connect 11 0 15 0;
#X connect 11 0 16 0;
#X connect 11 0 17 1;
#X connect 12 0 15 0;
#X connect 13 0 1 1;
#X connect 14 0 7 0;
#X connect 15 0 8 0;
#X connect 16 0 3 0;
#X connect 17 0 6 0;
#X connect 17 0 13 0;
#X connect 19 0 17 0;
#X restore 30 135 pd allpass tap_19_20;
#N canvas 238 0 570 590 allpass 0;
#X obj 56 127 inlet~;
#X obj 56 400 +~;
#X obj 427 232 loadbang;
#X obj 417 286 t f f;
#X obj 417 310 *;
#X obj 417 334 expr 1-$f1;
#X obj 253 364 *~;
#X obj 232 394 +~;
#X obj 114 177 * -1;
#X obj 88 207 *~;
#X obj 232 426 outlet~;
#X obj 417 129 inlet;
#X obj 114 117 loadbang;
#X obj 75 365 *~ -1;
#X obj 201 364 *~ -1;
#X obj 114 149 f 0.625;
#X obj 252 262 *~ 0.625;
#X obj 417 262 f 0.625;
#X obj 56 491 delwrite~ \$0-tap_15_16 200;
#X obj 252 53 delread~ \$0-tap_15_16 12.7348;
#X connect 0 0 1 0;
#X connect 0 0 9 0;
#X connect 1 0 18 0;
#X connect 2 0 17 0;
#X connect 3 0 4 0;
#X connect 3 1 4 1;
#X connect 4 0 5 0;
#X connect 5 0 6 1;
#X connect 6 0 7 1;
#X connect 7 0 10 0;
#X connect 8 0 9 1;
#X connect 9 0 14 0;
#X connect 11 0 15 0;
#X connect 11 0 16 1;
#X connect 11 0 17 0;
#X connect 12 0 15 0;
#X connect 13 0 1 1;
#X connect 14 0 7 0;
#X connect 15 0 8 0;
#X connect 16 0 6 0;
#X connect 16 0 13 0;
#X connect 17 0 3 0;
#X connect 19 0 16 0;
#X restore 30 190 pd allpass tap_15_16;
#N canvas 238 0 566 586 allpass 0;
#X obj 56 127 inlet~;
#X obj 56 400 +~;
#X obj 427 232 loadbang;
#X obj 417 286 t f f;
#X obj 417 310 *;
#X obj 417 334 expr 1-$f1;
#X obj 253 364 *~;
#X obj 232 394 +~;
#X obj 114 177 * -1;
#X obj 88 207 *~;
#X obj 232 426 outlet~;
#X obj 417 129 inlet;
#X obj 114 117 loadbang;
#X obj 75 365 *~ -1;
#X obj 201 364 *~ -1;
#X obj 114 149 f 0.625;
#X obj 252 262 *~ 0.625;
#X obj 417 262 f 0.625;
#X obj 56 491 delwrite~ \$0-tap_21_22 200;
#X obj 252 53 delread~ \$0-tap_21_22 9.30748;
#X connect 0 0 1 0;
#X connect 0 0 9 0;
#X connect 1 0 18 0;
#X connect 2 0 17 0;
#X connect 3 0 4 0;
#X connect 3 1 4 1;
#X connect 4 0 5 0;
#X connect 5 0 6 1;
#X connect 6 0 7 1;
#X connect 7 0 10 0;
#X connect 8 0 9 1;
#X connect 9 0 14 0;
#X connect 11 0 15 0;
#X connect 11 0 16 1;
#X connect 11 0 17 0;
#X connect 12 0 15 0;
#X connect 13 0 1 1;
#X connect 14 0 7 0;
#X connect 15 0 8 0;
#X connect 16 0 6 0;
#X connect 16 0 13 0;
#X connect 17 0 3 0;
#X connect 19 0 16 0;
#X restore 30 230 pd allpass tap_21_22;
#X connect 0 0 4 0;
#X connect 2 0 4 1;
#X connect 2 0 5 1;
#X connect 3 0 6 1;
#X connect 3 0 7 1;
#X connect 4 0 5 0;
#X connect 5 0 6 0;
#X connect 6 0 7 0;
#X connect 7 0 1 0;
#X restore 25 168 pd input_diffusion;
#N canvas 38 72 501 476 reverberation_tank 0;
#X obj 168 85 inlet~;
#X obj 43 120 +~;
#X obj 255 121 +~;
#N canvas 0 0 458 308 z^-4217 0;
#X obj 106 55 inlet~;
#X obj 105 120 delwrite~ \$0-tap_48_54 141.695;
#X text 358 135 4217;
#X obj 105 147 delread~ \$0-tap_48_54 141.695;
#X obj 106 223 outlet~;
#X connect 0 0 1 0;
#X connect 3 0 4 0;
#X restore 255 190 pd z^-4217;
#N canvas 0 0 458 308 z^-4453 0;
#X obj 41 104 delwrite~ \$0-tap_24_30 149.625;
#X obj 42 128 delread~ \$0-tap_24_30 149.625;
#X text 287 119 4453;
#X obj 43 60 inlet~;
#X obj 43 168 outlet~;
#X connect 1 0 4 0;
#X connect 3 0 0 0;
#X restore 43 192 pd z^-4453;
#N canvas 0 0 466 316 damping 0;
#X obj 74 53 inlet~;
#X obj 70 222 outlet~;
#X obj 73 137 lop~ 22050;
#X obj 162 137 r \$0-damping;
#X connect 0 0 2 0;
#X connect 2 0 1 0;
#X connect 3 0 2 1;
#X restore 44 221 pd damping;
#N canvas 0 0 470 320 damping 0;
#X obj 74 53 inlet~;
#X obj 70 222 outlet~;
#X obj 73 137 lop~ 22050;
#X obj 162 137 r \$0-damping;
#X connect 0 0 2 0;
#X connect 2 0 1 0;
#X connect 3 0 2 1;
#X restore 256 221 pd damping;
#N canvas 0 0 470 320 decay 0;
#X obj 71 66 inlet~;
#X obj 71 220 outlet~;
#X obj 140 139 r \$0-decay;
#X obj 70 140 *~ 0.5;
#X connect 0 0 3 0;
#X connect 2 0 3 1;
#X connect 3 0 1 0;
#X restore 43 249 pd decay;
#N canvas 0 0 470 320 decay 0;
#X obj 71 66 inlet~;
#X obj 71 220 outlet~;
#X obj 140 139 r \$0-decay;
#X obj 70 140 *~ 0.5;
#X connect 0 0 3 0;
#X connect 2 0 3 1;
#X connect 3 0 1 0;
#X restore 257 250 pd decay;
#N canvas 0 0 466 316 decay 0;
#X obj 71 66 inlet~;
#X obj 71 220 outlet~;
#X obj 140 139 r \$0-decay;
#X obj 70 140 *~ 0.5;
#X connect 0 0 3 0;
#X connect 2 0 3 1;
#X connect 3 0 1 0;
#X restore 43 87 pd decay;
#N canvas 0 0 466 316 decay 0;
#X obj 71 66 inlet~;
#X obj 71 220 outlet~;
#X obj 140 139 r \$0-decay;
#X obj 70 140 *~ 0.5;
#X connect 0 0 3 0;
#X connect 2 0 3 1;
#X connect 3 0 1 0;
#X restore 273 85 pd decay;
#N canvas 0 0 498 348 decay_diffusion1 0;
#N canvas 232 298 494 344 excursion 0;
#X obj 66 192 outlet~;
#X obj 62 90 osc~ 1;
#X obj 63 143 *~ 0.53761;
#X obj 138 109 r \$0-excursion;
#X connect 1 0 2 0;
#X connect 2 0 0 0;
#X connect 3 0 2 1;
#X restore 133 120 pd excursion;
#X obj 43 32 inlet~;
#X obj 44 250 outlet~;
#X obj 88 84 r \$0-decay_diffusion1;
#N canvas 409 74 612 523 allpassvd 0;
#X obj 48 83 inlet~;
#X obj 48 296 +~;
#X obj 285 142 loadbang;
#X obj 285 196 t f f;
#X obj 285 220 *;
#X obj 285 244 expr 1-$f1;
#X obj 229 277 *~;
#X obj 216 300 +~;
#X obj 94 138 * -1;
#X obj 80 163 *~;
#X obj 217 401 outlet~;
#X obj 392 30 inlet~;
#X obj 447 56 sig~;
#X obj 447 10 loadbang;
#X obj 390 78 +~;
#X obj 255 45 inlet;
#X obj 94 60 loadbang;
#X text 9 6 arguments: delay(ms) feedback(mult);
#X text 10 20 inlets: signal feedback(mult) excursion;
#X obj 94 114 f 0.7;
#X obj 230 152 *~ 0.7;
#X obj 285 172 f 0.7;
#X obj 391 404 +~;
#X text 372 428 excursion;
#X obj 48 327 delwrite~ \$0-tap_23_24 100;
#X obj 283 101 vd~ \$0-tap_23_24;
#X obj 447 33 f 22.5599;
#X connect 0 0 1 0;
#X connect 0 0 9 0;
#X connect 1 0 24 0;
#X connect 2 0 21 0;
#X connect 3 0 4 0;
#X connect 3 1 4 1;
#X connect 4 0 5 0;
#X connect 5 0 6 1;
#X connect 6 0 7 1;
#X connect 7 0 10 0;
#X connect 8 0 9 1;
#X connect 9 0 7 0;
#X connect 11 0 14 0;
#X connect 12 0 14 1;
#X connect 13 0 26 0;
#X connect 14 0 22 0;
#X connect 14 0 25 0;
#X connect 15 0 19 0;
#X connect 15 0 20 1;
#X connect 15 0 21 0;
#X connect 16 0 19 0;
#X connect 19 0 8 0;
#X connect 20 0 1 1;
#X connect 20 0 6 0;
#X connect 21 0 3 0;
#X connect 25 0 20 0;
#X connect 26 0 12 0;
#X restore 43 150 pd allpassvd;
#X connect 0 0 4 2;
#X connect 1 0 4 0;
#X connect 3 0 4 1;
#X connect 4 0 2 0;
#X restore 44 156 pd decay_diffusion1;
#N canvas 0 0 529 394 decay_diffusion1 0;
#N canvas 232 298 482 332 excursion 0;
#X obj 65 192 outlet~;
#X obj 63 81 osc~ 1;
#X obj 64 134 *~ 0.53761;
#X obj 139 104 r \$0-excursion;
#X connect 1 0 2 0;
#X connect 2 0 0 0;
#X connect 3 0 2 1;
#X restore 138 92 pd excursion;
#X obj 49 25 inlet~;
#X obj 49 200 outlet~;
#X obj 93 60 r \$0-decay_diffusion1;
#N canvas 348 52 608 519 allpassvd 0;
#X obj 48 83 inlet~;
#X obj 48 296 +~;
#X obj 285 142 loadbang;
#X obj 285 196 t f f;
#X obj 285 220 *;
#X obj 285 244 expr 1-$f1;
#X obj 229 277 *~;
#X obj 216 300 +~;
#X obj 94 138 * -1;
#X obj 80 163 *~;
#X obj 217 401 outlet~;
#X obj 392 30 inlet~;
#X obj 447 56 sig~;
#X obj 447 10 loadbang;
#X obj 390 78 +~;
#X obj 255 45 inlet;
#X obj 94 60 loadbang;
#X text 9 6 arguments: delay(ms) feedback(mult);
#X text 10 20 inlets: signal feedback(mult) excursion;
#X obj 48 327 delwrite~ \$0-tap_46_48 100;
#X obj 283 101 vd~ \$0-tap_46_48;
#X obj 447 33 f 30.5097;
#X obj 94 114 f 0.7;
#X obj 230 152 *~ 0.7;
#X obj 285 172 f 0.7;
#X obj 391 404 +~;
#X text 372 428 excursion;
#X connect 0 0 1 0;
#X connect 0 0 9 0;
#X connect 1 0 19 0;
#X connect 2 0 24 0;
#X connect 3 0 4 0;
#X connect 3 1 4 1;
#X connect 4 0 5 0;
#X connect 5 0 6 1;
#X connect 6 0 7 1;
#X connect 7 0 10 0;
#X connect 8 0 9 1;
#X connect 9 0 7 0;
#X connect 11 0 14 0;
#X connect 12 0 14 1;
#X connect 13 0 21 0;
#X connect 14 0 20 0;
#X connect 14 0 25 0;
#X connect 15 0 22 0;
#X connect 15 0 23 1;
#X connect 15 0 24 0;
#X connect 16 0 22 0;
#X connect 20 0 23 0;
#X connect 21 0 12 0;
#X connect 22 0 8 0;
#X connect 23 0 1 1;
#X connect 23 0 6 0;
#X connect 24 0 3 0;
#X restore 48 135 pd allpassvd;
#X connect 0 0 4 2;
#X connect 1 0 4 0;
#X connect 3 0 4 1;
#X connect 4 0 2 0;
#X restore 256 155 pd decay_diffusion1;
#N canvas 327 329 552 336 decay_diffusion2 0;
#X obj 37 63 inlet~;
#X obj 37 220 outlet~;
#N canvas 393 17 582 586 allpass 0;
#X obj 56 127 inlet~;
#X obj 56 400 +~;
#X obj 427 232 loadbang;
#X obj 417 286 t f f;
#X obj 417 310 *;
#X obj 417 334 expr 1-$f1;
#X obj 253 364 *~;
#X obj 232 394 +~;
#X obj 114 177 * -1;
#X obj 88 207 *~;
#X obj 232 426 outlet~;
#X obj 417 129 inlet;
#X obj 114 117 loadbang;
#X obj 75 365 *~ -1;
#X obj 201 364 *~ -1;
#X obj 252 52 delread~ \$0-tap_31_33 60.4818;
#X obj 56 491 delwrite~ \$0-tap_31_33 200;
#X obj 114 149 f 0.5;
#X obj 252 262 *~ 0.5;
#X obj 417 262 f 0.5;
#X connect 0 0 1 0;
#X connect 0 0 9 0;
#X connect 1 0 16 0;
#X connect 2 0 19 0;
#X connect 3 0 4 0;
#X connect 3 1 4 1;
#X connect 4 0 5 0;
#X connect 5 0 6 1;
#X connect 6 0 7 1;
#X connect 7 0 10 0;
#X connect 8 0 9 1;
#X connect 9 0 14 0;
#X connect 11 0 17 0;
#X connect 11 0 18 1;
#X connect 11 0 19 0;
#X connect 12 0 17 0;
#X connect 13 0 1 1;
#X connect 14 0 7 0;
#X connect 15 0 18 0;
#X connect 17 0 8 0;
#X connect 18 0 6 0;
#X connect 18 0 13 0;
#X connect 19 0 3 0;
#X restore 36 143 pd allpass tap_31_33;
#X obj 191 114 r \$0-decay_diffusion2;
#X connect 0 0 2 0;
#X connect 2 0 1 0;
#X connect 3 0 2 1;
#X restore 43 277 pd decay_diffusion2;
#N canvas 0 0 553 336 decay_diffusion2 0;
#X obj 52 38 inlet~;
#X obj 54 171 outlet~;
#X obj 210 85 r \$0-decay_diffusion2;
#N canvas 393 17 586 590 allpass 0;
#X obj 56 127 inlet~;
#X obj 56 400 +~;
#X obj 427 232 loadbang;
#X obj 417 286 t f f;
#X obj 417 310 *;
#X obj 417 334 expr 1-$f1;
#X obj 253 364 *~;
#X obj 232 394 +~;
#X obj 114 177 * -1;
#X obj 88 207 *~;
#X obj 232 426 outlet~;
#X obj 417 129 inlet;
#X obj 114 117 loadbang;
#X obj 75 365 *~ -1;
#X obj 201 364 *~ -1;
#X obj 114 149 f 0.5;
#X obj 252 262 *~ 0.5;
#X obj 417 262 f 0.5;
#X obj 56 491 delwrite~ \$0-tap_55_59 200;
#X obj 252 52 delread~ \$0-tap_55_59 89.2443;
#X connect 0 0 1 0;
#X connect 0 0 9 0;
#X connect 1 0 18 0;
#X connect 2 0 17 0;
#X connect 3 0 4 0;
#X connect 3 1 4 1;
#X connect 4 0 5 0;
#X connect 5 0 6 1;
#X connect 6 0 7 1;
#X connect 7 0 10 0;
#X connect 8 0 9 1;
#X connect 9 0 14 0;
#X connect 11 0 15 0;
#X connect 11 0 16 1;
#X connect 11 0 17 0;
#X connect 12 0 15 0;
#X connect 13 0 1 1;
#X connect 14 0 7 0;
#X connect 15 0 8 0;
#X connect 16 0 6 0;
#X connect 16 0 13 0;
#X connect 17 0 3 0;
#X connect 19 0 16 0;
#X restore 55 114 pd allpass tap_55_59;
#X connect 0 0 3 0;
#X connect 2 0 3 1;
#X connect 3 0 1 0;
#X restore 256 278 pd decay_diffusion2;
#N canvas 0 0 454 304 feedback 0;
#X obj 43 118 outlet~;
#X obj 44 55 delread~ \$0-tap_59_63 106.28;
#X connect 1 0 0 0;
#X restore 43 49 pd feedback;
#N canvas 0 0 454 304 feedback 0;
#X obj 81 188 outlet~;
#X obj 81 134 delread~ \$0-tap_33_39 124.996;
#X connect 1 0 0 0;
#X restore 274 51 pd feedback;
#N canvas 0 0 458 308 to_left 0;
#X obj 48 52 inlet~;
#X obj 48 95 delwrite~ \$0-tap_59_63 106.28;
#X connect 0 0 1 0;
#X restore 255 306 pd to_left;
#N canvas 0 0 454 304 to_right 0;
#X obj 53 173 delwrite~ \$0-tap_33_39 124.996;
#X obj 56 100 inlet~;
#X connect 1 0 0 0;
#X restore 44 305 pd to_right;
#X text 344 190 48_54;
#X text 136 193 24_30;
#X connect 0 0 1 1;
#X connect 0 0 2 0;
#X connect 1 0 11 0;
#X connect 2 0 12 0;
#X connect 3 0 6 0;
#X connect 4 0 5 0;
#X connect 5 0 7 0;
#X connect 6 0 8 0;
#X connect 7 0 13 0;
#X connect 8 0 14 0;
#X connect 9 0 1 0;
#X connect 10 0 2 1;
#X connect 11 0 4 0;
#X connect 12 0 3 0;
#X connect 13 0 18 0;
#X connect 14 0 17 0;
#X connect 15 0 9 0;
#X connect 16 0 10 0;
#X restore 25 198 pd reverberation_tank;
#N canvas 58 172 593 487 predelay 0;
#X obj 97 19 inlet~;
#X obj 97 317 outlet~;
#X obj 393 56 sel 0;
#X obj 96 209 *~ 1;
#X obj 110 178 f 1;
#X obj 140 179 f 0;
#X obj 428 106 t a b;
#X obj 377 222 *~ 1;
#X obj 402 191 f 0;
#X obj 433 191 f 1;
#X text 17 210 no delay;
#X text 237 212 delay;
#N canvas 0 0 496 308 predelay 0;
#X obj 35 52 inlet~;
#X obj 263 227 outlet~;
#X obj 264 50 inlet;
#X obj 35 101 delwrite~ \$0-predelay 1000;
#X obj 264 183 delread~ \$0-predelay 1;
#X connect 0 0 3 0;
#X connect 2 0 4 0;
#X connect 4 0 1 0;
#X restore 297 190 pd predelay;
#X obj 393 25 r \$0-predelay;
#X connect 0 0 3 0;
#X connect 0 0 12 0;
#X connect 2 0 4 0;
#X connect 2 0 8 0;
#X connect 2 1 6 0;
#X connect 3 0 1 0;
#X connect 4 0 3 1;
#X connect 5 0 3 1;
#X connect 6 0 12 1;
#X connect 6 1 5 0;
#X connect 6 1 9 0;
#X connect 7 0 1 0;
#X connect 8 0 7 1;
#X connect 9 0 7 1;
#X connect 12 0 7 0;
#X connect 13 0 2 0;
#X restore 25 105 pd predelay;
#X obj 85 32 inlet~;
#X obj 223 35 inlet;
#N canvas 0 0 458 308 bandwidth 0;
#X obj 66 22 inlet~;
#X obj 65 183 outlet~;
#X obj 65 107 lop~;
#X obj 92 74 r \$0-bandwidth;
#X connect 0 0 2 0;
#X connect 2 0 1 0;
#X connect 3 0 2 1;
#X restore 25 137 pd bandwidth;
#N canvas 175 38 903 567 \$0/params 0;
#X obj 44 29 inlet;
#X obj 44 158 s \$0-predelay;
#X obj 161 158 s \$0-bandwidth;
#X obj 44 205 route input_diffusion1 input_diffusion2 decay_diffusion1
decay_diffusion2;
#X obj 44 65 route predelay bandwidth damping decay;
#X obj 285 157 s \$0-damping;
#X obj 398 158 s \$0-decay;
#X obj 44 312 s \$0-input_diffusion1;
#X obj 224 312 s \$0-input_diffusion2;
#X obj 400 313 s \$0-decay_diffusion1;
#X obj 580 314 s \$0-decay_diffusion2;
#X obj 42 450 s \$0-excursion;
#N canvas 295 162 450 343 default 0;
#X obj 55 33 inlet;
#X obj 55 299 outlet;
#X obj 194 34 loadbang;
#X obj 55 198 f;
#X obj 194 69 t b b;
#X obj 174 124 sel 0;
#X text 299 145 default;
#X text 250 97 argument;
#X obj 174 97 f \$2;
#X obj 231 144 f 22050;
#X connect 0 0 3 0;
#X connect 2 0 4 0;
#X connect 3 0 1 0;
#X connect 4 0 8 0;
#X connect 4 1 9 0;
#X connect 5 1 3 0;
#X connect 8 0 5 0;
#X connect 9 0 3 0;
#X restore 161 111 pd default;
#N canvas 295 162 450 343 default 0;
#X obj 55 33 inlet;
#X obj 55 299 outlet;
#X obj 194 34 loadbang;
#X obj 55 198 f;
#X obj 194 69 t b b;
#X obj 174 124 sel 0;
#X text 299 145 default;
#X text 250 97 argument;
#X obj 174 97 f \$3;
#X obj 231 144 f 22050;
#X connect 0 0 3 0;
#X connect 2 0 4 0;
#X connect 3 0 1 0;
#X connect 4 0 8 0;
#X connect 4 1 9 0;
#X connect 5 1 3 0;
#X connect 8 0 5 0;
#X connect 9 0 3 0;
#X restore 285 112 pd default;
#N canvas 295 162 450 343 default 0;
#X obj 55 33 inlet;
#X obj 55 299 outlet;
#X obj 194 34 loadbang;
#X obj 55 198 f;
#X obj 194 69 t b b;
#X obj 174 124 sel 0;
#X text 299 145 default;
#X text 250 97 argument;
#X obj 174 97 f \$4;
#X obj 231 144 f 0.5;
#X connect 0 0 3 0;
#X connect 2 0 4 0;
#X connect 3 0 1 0;
#X connect 4 0 8 0;
#X connect 4 1 9 0;
#X connect 5 1 3 0;
#X connect 8 0 5 0;
#X connect 9 0 3 0;
#X restore 398 112 pd default;
#N canvas 295 162 450 343 default 0;
#X obj 55 33 inlet;
#X obj 55 299 outlet;
#X obj 194 34 loadbang;
#X obj 55 198 f;
#X obj 194 69 t b b;
#X obj 174 124 sel 0;
#X text 299 145 default;
#X text 250 97 argument;
#X obj 174 97 f \$5;
#X obj 231 144 f 0.75;
#X connect 0 0 3 0;
#X connect 2 0 4 0;
#X connect 3 0 1 0;
#X connect 4 0 8 0;
#X connect 4 1 9 0;
#X connect 5 1 3 0;
#X connect 8 0 5 0;
#X connect 9 0 3 0;
#X restore 44 266 pd default;
#N canvas 295 162 450 343 default 0;
#X obj 55 33 inlet;
#X obj 55 299 outlet;
#X obj 194 34 loadbang;
#X obj 55 198 f;
#X obj 194 69 t b b;
#X obj 174 124 sel 0;
#X text 299 145 default;
#X text 250 97 argument;
#X obj 174 97 f \$6;
#X obj 231 144 f 0.625;
#X connect 0 0 3 0;
#X connect 2 0 4 0;
#X connect 3 0 1 0;
#X connect 4 0 8 0;
#X connect 4 1 9 0;
#X connect 5 1 3 0;
#X connect 8 0 5 0;
#X connect 9 0 3 0;
#X restore 224 269 pd default;
#N canvas 295 162 450 343 default 0;
#X obj 55 33 inlet;
#X obj 55 299 outlet;
#X obj 194 34 loadbang;
#X obj 55 198 f;
#X obj 194 69 t b b;
#X obj 174 124 sel 0;
#X text 299 145 default;
#X text 250 97 argument;
#X obj 174 97 f \$7;
#X obj 231 144 f 0.7;
#X connect 0 0 3 0;
#X connect 2 0 4 0;
#X connect 3 0 1 0;
#X connect 4 0 8 0;
#X connect 4 1 9 0;
#X connect 5 1 3 0;
#X connect 8 0 5 0;
#X connect 9 0 3 0;
#X restore 400 268 pd default;
#N canvas 295 162 450 343 default 0;
#X obj 55 33 inlet;
#X obj 55 299 outlet;
#X obj 194 34 loadbang;
#X obj 55 198 f;
#X obj 194 69 t b b;
#X obj 174 124 sel 0;
#X text 299 145 default;
#X text 250 97 argument;
#X obj 174 97 f \$8;
#X obj 231 144 f 0.5;
#X connect 0 0 3 0;
#X connect 2 0 4 0;
#X connect 3 0 1 0;
#X connect 4 0 8 0;
#X connect 4 1 9 0;
#X connect 5 1 3 0;
#X connect 8 0 5 0;
#X connect 9 0 3 0;
#X restore 580 268 pd default;
#N canvas 189 104 450 343 default 0;
#X obj 55 33 inlet;
#X obj 55 299 outlet;
#X obj 194 34 loadbang;
#X obj 55 198 f;
#X obj 194 69 t b b;
#X obj 174 124 sel 0;
#X text 319 145 default;
#X text 250 97 argument;
#X obj 174 97 f \$9;
#X obj 231 144 f 0.53761;
#X connect 0 0 3 0;
#X connect 2 0 4 0;
#X connect 3 0 1 0;
#X connect 4 0 8 0;
#X connect 4 1 9 0;
#X connect 5 1 3 0;
#X connect 8 0 5 0;
#X connect 9 0 3 0;
#X restore 42 404 pd default;
#X obj 42 361 route excursion;
#X obj 218 416 print jon~_nosuch\$0/parameter;
#X connect 0 0 4 0;
#X connect 3 0 15 0;
#X connect 3 1 16 0;
#X connect 3 2 17 0;
#X connect 3 3 18 0;
#X connect 3 4 20 0;
#X connect 4 0 1 0;
#X connect 4 1 12 0;
#X connect 4 2 13 0;
#X connect 4 3 14 0;
#X connect 4 4 3 0;
#X connect 12 0 2 0;
#X connect 13 0 5 0;
#X connect 14 0 6 0;
#X connect 15 0 7 0;
#X connect 16 0 8 0;
#X connect 17 0 9 0;
#X connect 18 0 10 0;
#X connect 19 0 11 0;
#X connect 20 0 19 0;
#X connect 20 1 21 0;
#X restore 223 72 pd \$0/params;
#N canvas 0 0 458 308 1/2 0;
#X obj 102 56 inlet~;
#X obj 182 56 inlet~;
#X obj 103 138 *~ 0.5;
#X obj 103 102 +~;
#X obj 103 175 outlet~;
#X connect 0 0 3 0;
#X connect 1 0 3 1;
#X connect 2 0 4 0;
#X connect 3 0 2 0;
#X restore 25 72 pd 1/2;
#N canvas 120 111 856 498 output_taps 0;
#X obj 28 409 outlet~;
#X obj 30 267 -~;
#X obj 31 109 +~;
#X obj 30 215 +~;
#X obj 29 369 -~;
#X text 30 26 left;
#X obj 32 55 delread~ \$0-tap_48_54 8.93787;
#X obj 51 82 delread~ \$0-tap_48_54 99.9294;
#X obj 50 134 delread~ \$0-tap_55_59 64.2787;
#X obj 31 163 -~;
#X obj 49 188 delread~ \$0-tap_59_63 67.0676;
#X obj 50 240 delread~ \$0-tap_24_30 66.866;
#X obj 50 293 delread~ \$0-tap_31_33 6.28339;
#X obj 30 317 -~;
#X obj 49 342 delread~ \$0-tap_33_39 35.8187;
#X obj 371 407 outlet~;
#X obj 370 105 +~;
#X obj 371 261 -~;
#X obj 370 208 +~;
#X obj 371 365 -~;
#X text 370 20 right;
#X obj 371 51 delread~ \$0-tap_24_30 11.8612;
#X obj 390 78 delread~ \$0-tap_24_30 121.871;
#X obj 390 130 delread~ \$0-tap_31_33 41.2621;
#X obj 390 181 delread~ \$0-tap_33_39 89.8155;
#X obj 391 234 delread~ \$0-tap_48_54 70.9317;
#X obj 372 313 -~;
#X obj 392 286 delread~ \$0-tap_55_59 11.2563;
#X obj 390 338 delread~ \$0-tap_59_63 4.06572;
#X obj 370 154 -~;
#X connect 1 0 13 0;
#X connect 2 0 9 0;
#X connect 3 0 1 0;
#X connect 4 0 0 0;
#X connect 6 0 2 0;
#X connect 7 0 2 1;
#X connect 8 0 9 1;
#X connect 9 0 3 0;
#X connect 10 0 3 1;
#X connect 11 0 1 1;
#X connect 12 0 13 1;
#X connect 13 0 4 0;
#X connect 14 0 4 1;
#X connect 16 0 29 0;
#X connect 17 0 26 0;
#X connect 18 0 17 0;
#X connect 19 0 15 0;
#X connect 21 0 16 0;
#X connect 22 0 16 1;
#X connect 23 0 29 1;
#X connect 24 0 18 1;
#X connect 25 0 17 1;
#X connect 26 0 19 0;
#X connect 27 0 26 1;
#X connect 28 0 19 1;
#X connect 29 0 18 0;
#X restore 27 247 pd output_taps;
#X connect 0 0 10 0;
#X connect 3 0 4 0;
#X connect 5 0 8 0;
#X connect 6 0 10 1;
#X connect 7 0 9 0;
#X connect 8 0 3 0;
#X connect 10 0 5 0;
#X connect 11 0 1 0;
#X connect 11 1 2 0;
#X restore 44 540 pd jon~;
#X obj 12 33 hsl 64 16 0 127 0 1 \$0/wet_dry \$1/wet_dry wet_dry -2
-8 0 8 -260818 -1 -1 3374 1;
#X obj 9 65 hradio 16 1 0 4 \$0/preset \$1/preset preset 0 -8 0 8 -260818
-1 -1 2;
#X obj 930 462 r \$0/preset;
#X obj 430 37 sssad/auto \$0/more \$1/more;
#X obj 12 129 hsl 64 16 0 127 0 0 \$0/predelay \$1/predelay predelay
-2 -8 0 8 -260818 -1 -1 0 1;
#X obj 940 154 r \$0/predelay;
#X obj 940 175 / 127;
#X obj 940 196 * 250;
#X obj 940 217 s \$0/param1;
#X obj 10 193 hsl 64 16 0 127 0 0 \$0/excursion \$1/excursion excursion
-2 -8 0 8 -260818 -1 -1 0 1;
#X obj 1040 174 / 127;
#X obj 11 161 hsl 64 16 0 127 0 0 \$0/damping \$1/damping damping -2
-8 0 8 -260818 -1 -1 0 1;
#X obj 940 308 * 21829.5;
#X obj 940 329 + 220.5;
#X obj 940 244 r \$0/damping;
#X obj 940 350 s \$0/param3;
#X obj 12 97 hsl 64 16 0 127 0 0 \$0/decay_time \$1/decay_time decay_time
-2 -8 0 8 -260818 -1 -1 0 1;
#X obj 1041 311 s \$0/param4;
#X obj 1040 153 r \$0/excursion;
#X obj 1040 195 * 10;
#X obj 1040 216 s \$0/param9;
#X obj 930 483 sel 0 1 2 3;
#X obj 430 60 sssad/auto \$0/preset \$1/preset;
#X obj 430 106 sssad/auto \$0/predelay \$1/predelay;
#X obj 430 129 sssad/auto \$0/damping \$1/damping;
#X obj 430 152 sssad/auto \$0/excursion \$1/excursion;
#X obj 1041 289 / 127;
#X obj 940 265 - 127;
#X obj 940 287 / -127;
#X obj 505 232 r \$0/wet_dry;
#X obj 505 254 moses 64;
#X obj 430 14 sssad/auto \$0/wet_dry \$1/wet_dry;
#X msg 505 334 1;
#X msg 556 334 1;
#X obj 595 334 / 64;
#X obj 568 363 s \$0/dry;
#X obj 505 363 s \$0/wet;
#X obj 476 309 expr (127 - $f1) / 63;
#X obj 430 83 sssad/auto \$0/decay_time \$1/decay_time;
#X obj 1041 267 r \$0/decay_time;
#X connect 1 0 0 0;
#X connect 2 0 0 0;
#X connect 3 0 22 0;
#X connect 3 1 12 0;
#X connect 4 0 0 0;
#X connect 7 0 0 0;
#X connect 8 0 23 2;
#X connect 11 0 3 0;
#X connect 11 0 23 1;
#X connect 11 0 23 0;
#X connect 23 0 3 1;
#X connect 23 1 3 2;
#X connect 26 0 45 0;
#X connect 29 0 30 0;
#X connect 30 0 31 0;
#X connect 31 0 32 0;
#X connect 34 0 43 0;
#X connect 36 0 37 0;
#X connect 37 0 39 0;
#X connect 38 0 51 0;
#X connect 42 0 34 0;
#X connect 43 0 44 0;
#X connect 45 0 1 0;
#X connect 45 1 4 0;
#X connect 45 2 2 0;
#X connect 45 3 7 0;
#X connect 50 0 41 0;
#X connect 51 0 52 0;
#X connect 52 0 36 0;
#X connect 53 0 54 0;
#X connect 54 0 56 0;
#X connect 54 0 58 0;
#X connect 54 1 57 0;
#X connect 54 1 61 0;
#X connect 56 0 60 0;
#X connect 57 0 59 0;
#X connect 58 0 59 0;
#X connect 61 0 60 0;
#X connect 63 0 50 0;
#X coords 0 -1 1 250 140 214 1 0 0;
