#N canvas 69 211 450 300 10;
#X msg 13 66 bang;
#X obj 13 114 list split 0;
#X obj 13 142 list split 1;
#X obj 13 40 t b f;
#X obj 108 13 inlet list-or-bang-to-clear;
#X obj 13 13 inlet lookup;
#X obj 13 209 outlet;
#X obj 13 88 list;
#X obj 135 59 list length;
#X obj 82 91 mod;
#X obj 108 35 t a a;
#X obj 13 165 list trim;
#X connect 0 0 7 0;
#X connect 1 1 2 0;
#X connect 2 0 11 0;
#X connect 3 0 0 0;
#X connect 3 1 9 0;
#X connect 4 0 10 0;
#X connect 5 0 3 0;
#X connect 7 0 1 0;
#X connect 8 0 9 1;
#X connect 9 0 1 1;
#X connect 10 0 7 1;
#X connect 10 1 8 0;
#X connect 11 0 6 0;
