#N canvas 315 116 659 604 10;
#X obj 171 461 bp~ 440 80;
#X obj 249 461 bp~ 440 80;
#X obj 326 461 bp~ 440 80;
#X obj 404 461 bp~ 440 80;
#X obj 246 387 unpack 1 2 3 4 5;
#X msg 246 197 3454 5645 6433 6999 600;
#X text 174 197 metal;
#X text 172 224 glass 2;
#X text 174 330 wood;
#X msg 246 359 109 230 352 413 10;
#X msg 246 278 1245 1503 2131 2575 100;
#X text 174 302 plastic;
#X text 173 276 china;
#X text 173 250 glass 1;
#X text 170 358 cardboard;
#X msg 246 305 627 781 972 1184 70;
#X text 235 9 Simple material formants;
#X msg 246 222 2312 2466 3200 5314 380;
#X msg 245 249 1679 1233 4251 4640 340;
#X msg 246 332 221 333 426 527 40;
#X obj 283 537 clip~ -1 1;
#X obj 172 417 inlet~;
#X obj 283 560 outlet~;
#X obj 283 514 *~ 1;
#X obj 504 461 / 10;
#X obj 118 161 route 0 1 2 3 4 5 6;
#X obj 125 119 loadbang;
#X obj 118 141 f 0;
#X obj 351 422 t f f;
#X text 236 34 This patch is by Andy Farnell (obiwannabe) and I stole
it from netpd/fx.;
#X obj 4 39 hradio 16 1 0 7 \$0/material \$1/material material 0 -8
0 8 -260818 -1 -1 0;
#X obj 118 98 r \$0/material;
#X obj 405 577 sssad/auto \$0/material \$1/material;
#X connect 0 0 23 0;
#X connect 1 0 23 0;
#X connect 2 0 23 0;
#X connect 3 0 23 0;
#X connect 4 0 0 1;
#X connect 4 1 1 1;
#X connect 4 2 2 1;
#X connect 4 3 3 1;
#X connect 4 4 24 0;
#X connect 4 4 28 0;
#X connect 5 0 4 0;
#X connect 9 0 4 0;
#X connect 10 0 4 0;
#X connect 15 0 4 0;
#X connect 17 0 4 0;
#X connect 18 0 4 0;
#X connect 19 0 4 0;
#X connect 20 0 22 0;
#X connect 21 0 0 0;
#X connect 21 0 1 0;
#X connect 21 0 2 0;
#X connect 21 0 3 0;
#X connect 23 0 20 0;
#X connect 24 0 23 1;
#X connect 25 0 9 0;
#X connect 25 1 19 0;
#X connect 25 2 15 0;
#X connect 25 3 10 0;
#X connect 25 4 18 0;
#X connect 25 5 17 0;
#X connect 25 6 5 0;
#X connect 26 0 27 0;
#X connect 27 0 25 0;
#X connect 28 0 3 2;
#X connect 28 0 2 2;
#X connect 28 0 1 2;
#X connect 28 0 0 2;
#X connect 28 1 24 0;
#X connect 31 0 27 0;
#X coords 0 -1 1 1 120 60 1 0 0;
