#N canvas 108 75 628 435 10;
#X obj 55 230 metro;
#X obj 5 68 tgl 16 0 \$0/startstop \$1/startstop startstop 0 -6 0 8
-260818 -1 -1 0 127;
#X obj 55 257 f;
#X obj 92 257 + 1;
#X obj 85 36 nbx 3 16 1 500 0 0 \$0/bpm \$1/bpm bpm 0 -6 0 8 -260818
-1 -1 140 256;
#X obj 123 123 expr 60000 / $f1;
#X obj 123 206 / 4;
#X obj 5 36 nbx 3 16 1 256 0 0 \$0/ticksperbeat \$1/ticksperbeat ticksperbeat
0 -6 0 8 -260818 -1 -1 4 256;
#X obj 467 323 / 4;
#X obj 467 346 int;
#X obj 467 370 change;
#X obj 86 68 bng 16 250 50 0 \$0/reset \$1/reset reset 0 -6 0 8 -260818
-1 -1;
#X msg 17 166 0;
#X obj 520 172 *;
#X obj 520 133 t b f;
#X obj 4 333 sssad/sssad \$1/bpm;
#X obj 507 82 s \$1/beatlength;
#X obj 507 37 s \$1/ticklength;
#X obj 467 400 s \$1/beat;
#X obj 5 384 sssad/sssad \$1/ticksperbeat;
#X obj 540 400 outlet;
#X obj 6 283 outlet;
#X obj 99 230 r \$1/pos;
#X obj 4 355 s \$1/bpm;
#X obj 55 283 s \$1/tick;
#X obj 125 308 r \$0/bpm;
#X obj 162 362 r \$0/ticksperbeat;
#X obj 397 112 r \$0/ticksperbeat;
#X obj 5 407 s \$1/ticksperbeat;
#X obj 507 16 r \$1/ticksize;
#X obj 507 61 r \$1/beatsize;
#X obj 520 197 s \$1/beatsize;
#X obj 483 300 r \$0/ticksperbeat;
#X obj 18 99 r \$0/startstop;
#X obj 123 99 r \$0/bpm;
#X obj 17 144 r \$0/reset;
#X obj 139 144 r \$0/ticksperbeat;
#X obj 467 278 r \$1/tick;
#X obj 202 255 s \$1/ticksize;
#X obj 520 112 r \$1/ticksize;
#X obj 139 164 t b f;
#X obj 202 232 f;
#X msg 202 210 bang;
#X obj 202 190 r \$1/beat;
#X connect 0 0 2 0;
#X connect 2 0 3 0;
#X connect 2 0 21 0;
#X connect 2 0 24 0;
#X connect 3 0 2 1;
#X connect 5 0 6 0;
#X connect 6 0 0 1;
#X connect 6 0 41 1;
#X connect 8 0 9 0;
#X connect 9 0 10 0;
#X connect 10 0 18 0;
#X connect 10 0 20 0;
#X connect 12 0 2 0;
#X connect 13 0 31 0;
#X connect 14 0 13 0;
#X connect 14 1 13 1;
#X connect 15 0 23 0;
#X connect 19 0 28 0;
#X connect 22 0 2 1;
#X connect 25 0 15 1;
#X connect 26 0 19 1;
#X connect 27 0 13 0;
#X connect 29 0 17 0;
#X connect 30 0 16 0;
#X connect 32 0 8 1;
#X connect 33 0 0 0;
#X connect 34 0 5 0;
#X connect 35 0 12 0;
#X connect 36 0 40 0;
#X connect 37 0 8 0;
#X connect 39 0 14 0;
#X connect 40 0 6 0;
#X connect 40 1 6 1;
#X connect 41 0 38 0;
#X connect 42 0 41 0;
#X connect 43 0 42 0;
#X coords 0 0 1 1 120 90 1 0 0;
