#N canvas 4 20 993 674 10;
#X obj 394 236 makefilename \$0nbx%d;
#X obj 394 168 until;
#X obj 394 190 f;
#X obj 422 190 + 1;
#X obj 459 390 * 16;
#X obj 413 145 0;
#X obj 457 526 +;
#X obj 497 390 / 4;
#X obj 497 417 int;
#X obj 413 288 mod 4;
#X msg 464 337 symbol empty;
#X obj 413 502 symbol;
#X obj 413 312 select 0;
#X obj 442 145 \$0;
#X obj 830 9 namecanvas \$0tracker;
#X obj 562 253 pack f f;
#X obj 472 145 * 16;
#X obj 613 208 +;
#X obj 394 120 t f b b f f;
#X obj 629 145 / 4;
#X obj 459 412 + 16;
#X obj 613 230 + 16;
#X obj 394 42 t b f;
#X obj 394 97 f;
#X obj 394 69 delay 100;
#X obj 394 8 s-default \$2 16;
#X obj 645 123 s-default \$3 4;
#X obj 443 262 s-default \$3 4;
#X obj 513 363 s-default \$3 4;
#X text 508 11 Set up all the numberboxes;
#X obj 921 36 inlet;
#X obj 921 58 list;
#X msg 921 80 \; \$1 \$2 \;;
#N canvas 14 28 742 653 \$0connectors 0;
#X obj 575 4 namecanvas \$0connectors;
#X obj 5 16 s-connect 1090nbx0 1090/out;
#X obj 210 16 s-tabval 1090 1090nbx0 0;
#X obj 5 32 s-connect 1090nbx1 1090/out;
#X obj 210 32 s-tabval 1090 1090nbx1 1;
#X obj 5 48 s-connect 1090nbx2 1090/out;
#X obj 210 48 s-tabval 1090 1090nbx2 2;
#X obj 5 64 s-connect 1090nbx3 1090/out;
#X obj 210 64 s-tabval 1090 1090nbx3 3;
#X obj 5 83 s-connect 1090nbx4 1090/out;
#X obj 210 83 s-tabval 1090 1090nbx4 4;
#X obj 5 99 s-connect 1090nbx5 1090/out;
#X obj 210 99 s-tabval 1090 1090nbx5 5;
#X obj 5 115 s-connect 1090nbx6 1090/out;
#X obj 210 115 s-tabval 1090 1090nbx6 6;
#X obj 5 131 s-connect 1090nbx7 1090/out;
#X obj 210 131 s-tabval 1090 1090nbx7 7;
#X obj 5 150 s-connect 1090nbx8 1090/out;
#X obj 210 150 s-tabval 1090 1090nbx8 8;
#X obj 5 166 s-connect 1090nbx9 1090/out;
#X obj 210 166 s-tabval 1090 1090nbx9 9;
#X obj 5 182 s-connect 1090nbx10 1090/out;
#X obj 210 182 s-tabval 1090 1090nbx10 10;
#X obj 5 198 s-connect 1090nbx11 1090/out;
#X obj 210 198 s-tabval 1090 1090nbx11 11;
#X obj 5 217 s-connect 1090nbx12 1090/out;
#X obj 210 217 s-tabval 1090 1090nbx12 12;
#X obj 5 233 s-connect 1090nbx13 1090/out;
#X obj 210 233 s-tabval 1090 1090nbx13 13;
#X obj 5 249 s-connect 1090nbx14 1090/out;
#X obj 210 249 s-tabval 1090 1090nbx14 14;
#X obj 5 265 s-connect 1090nbx15 1090/out;
#X obj 210 265 s-tabval 1090 1090nbx15 15;
#X obj 5 16 s-connect 1006nbx0 1006/out;
#X obj 210 16 s-tabval 1006 1006nbx0 0;
#X obj 5 32 s-connect 1006nbx1 1006/out;
#X obj 210 32 s-tabval 1006 1006nbx1 1;
#X obj 5 48 s-connect 1006nbx2 1006/out;
#X obj 210 48 s-tabval 1006 1006nbx2 2;
#X obj 5 64 s-connect 1006nbx3 1006/out;
#X obj 210 64 s-tabval 1006 1006nbx3 3;
#X obj 5 83 s-connect 1006nbx4 1006/out;
#X obj 210 83 s-tabval 1006 1006nbx4 4;
#X obj 5 99 s-connect 1006nbx5 1006/out;
#X obj 210 99 s-tabval 1006 1006nbx5 5;
#X obj 5 115 s-connect 1006nbx6 1006/out;
#X obj 210 115 s-tabval 1006 1006nbx6 6;
#X obj 5 131 s-connect 1006nbx7 1006/out;
#X obj 210 131 s-tabval 1006 1006nbx7 7;
#X obj 5 150 s-connect 1006nbx8 1006/out;
#X obj 210 150 s-tabval 1006 1006nbx8 8;
#X obj 5 166 s-connect 1006nbx9 1006/out;
#X obj 210 166 s-tabval 1006 1006nbx9 9;
#X obj 5 182 s-connect 1006nbx10 1006/out;
#X obj 210 182 s-tabval 1006 1006nbx10 10;
#X obj 5 198 s-connect 1006nbx11 1006/out;
#X obj 210 198 s-tabval 1006 1006nbx11 11;
#X obj 5 217 s-connect 1006nbx12 1006/out;
#X obj 210 217 s-tabval 1006 1006nbx12 12;
#X obj 5 233 s-connect 1006nbx13 1006/out;
#X obj 210 233 s-tabval 1006 1006nbx13 13;
#X obj 5 249 s-connect 1006nbx14 1006/out;
#X obj 210 249 s-tabval 1006 1006nbx14 14;
#X obj 5 265 s-connect 1006nbx15 1006/out;
#X obj 210 265 s-tabval 1006 1006nbx15 15;
#X obj 5 16 s-connect 1270nbx0 1270/out;
#X obj 210 16 s-tabval 1270 1270nbx0 0;
#X obj 5 32 s-connect 1270nbx1 1270/out;
#X obj 210 32 s-tabval 1270 1270nbx1 1;
#X obj 5 48 s-connect 1270nbx2 1270/out;
#X obj 210 48 s-tabval 1270 1270nbx2 2;
#X obj 5 67 s-connect 1270nbx3 1270/out;
#X obj 210 67 s-tabval 1270 1270nbx3 3;
#X obj 5 83 s-connect 1270nbx4 1270/out;
#X obj 210 83 s-tabval 1270 1270nbx4 4;
#X obj 5 99 s-connect 1270nbx5 1270/out;
#X obj 210 99 s-tabval 1270 1270nbx5 5;
#X obj 5 118 s-connect 1270nbx6 1270/out;
#X obj 210 118 s-tabval 1270 1270nbx6 6;
#X obj 5 134 s-connect 1270nbx7 1270/out;
#X obj 210 134 s-tabval 1270 1270nbx7 7;
#X obj 5 150 s-connect 1270nbx8 1270/out;
#X obj 210 150 s-tabval 1270 1270nbx8 8;
#X obj 5 169 s-connect 1270nbx9 1270/out;
#X obj 210 169 s-tabval 1270 1270nbx9 9;
#X obj 5 185 s-connect 1270nbx10 1270/out;
#X obj 210 185 s-tabval 1270 1270nbx10 10;
#X obj 5 201 s-connect 1270nbx11 1270/out;
#X obj 210 201 s-tabval 1270 1270nbx11 11;
#X obj 5 220 s-connect 1270nbx12 1270/out;
#X obj 210 220 s-tabval 1270 1270nbx12 12;
#X obj 5 236 s-connect 1270nbx13 1270/out;
#X obj 210 236 s-tabval 1270 1270nbx13 13;
#X obj 5 252 s-connect 1270nbx14 1270/out;
#X obj 210 252 s-tabval 1270 1270nbx14 14;
#X obj 5 271 s-connect 1270nbx15 1270/out;
#X obj 210 271 s-tabval 1270 1270nbx15 15;
#X obj 5 16 s-connect 1538nbx0 1538/out;
#X obj 210 16 s-tabval 1538 1538nbx0 0;
#X obj 5 32 s-connect 1538nbx1 1538/out;
#X obj 210 32 s-tabval 1538 1538nbx1 1;
#X obj 5 48 s-connect 1538nbx2 1538/out;
#X obj 210 48 s-tabval 1538 1538nbx2 2;
#X obj 5 64 s-connect 1538nbx3 1538/out;
#X obj 210 64 s-tabval 1538 1538nbx3 3;
#X obj 5 83 s-connect 1538nbx4 1538/out;
#X obj 210 83 s-tabval 1538 1538nbx4 4;
#X obj 5 99 s-connect 1538nbx5 1538/out;
#X obj 210 99 s-tabval 1538 1538nbx5 5;
#X obj 5 115 s-connect 1538nbx6 1538/out;
#X obj 210 115 s-tabval 1538 1538nbx6 6;
#X obj 5 131 s-connect 1538nbx7 1538/out;
#X obj 210 131 s-tabval 1538 1538nbx7 7;
#X obj 5 150 s-connect 1538nbx8 1538/out;
#X obj 210 150 s-tabval 1538 1538nbx8 8;
#X obj 5 166 s-connect 1538nbx9 1538/out;
#X obj 210 166 s-tabval 1538 1538nbx9 9;
#X obj 5 182 s-connect 1538nbx10 1538/out;
#X obj 210 182 s-tabval 1538 1538nbx10 10;
#X obj 5 198 s-connect 1538nbx11 1538/out;
#X obj 210 198 s-tabval 1538 1538nbx11 11;
#X obj 5 217 s-connect 1538nbx12 1538/out;
#X obj 210 217 s-tabval 1538 1538nbx12 12;
#X obj 5 233 s-connect 1538nbx13 1538/out;
#X obj 210 233 s-tabval 1538 1538nbx13 13;
#X obj 5 249 s-connect 1538nbx14 1538/out;
#X obj 210 249 s-tabval 1538 1538nbx14 14;
#X obj 5 265 s-connect 1538nbx15 1538/out;
#X obj 210 265 s-tabval 1538 1538nbx15 15;
#X obj 5 16 s-connect 2796nbx0 2796/out;
#X obj 210 16 s-tabval 2796 2796nbx0 0;
#X obj 5 32 s-connect 2796nbx1 2796/out;
#X obj 210 32 s-tabval 2796 2796nbx1 1;
#X obj 5 48 s-connect 2796nbx2 2796/out;
#X obj 210 48 s-tabval 2796 2796nbx2 2;
#X obj 5 64 s-connect 2796nbx3 2796/out;
#X obj 210 64 s-tabval 2796 2796nbx3 3;
#X obj 5 80 s-connect 2796nbx4 2796/out;
#X obj 210 80 s-tabval 2796 2796nbx4 4;
#X obj 5 96 s-connect 2796nbx5 2796/out;
#X obj 210 96 s-tabval 2796 2796nbx5 5;
#X obj 5 112 s-connect 2796nbx6 2796/out;
#X obj 210 112 s-tabval 2796 2796nbx6 6;
#X obj 5 128 s-connect 2796nbx7 2796/out;
#X obj 210 128 s-tabval 2796 2796nbx7 7;
#X obj 5 152 s-connect 2796nbx8 2796/out;
#X obj 210 152 s-tabval 2796 2796nbx8 8;
#X obj 5 168 s-connect 2796nbx9 2796/out;
#X obj 210 168 s-tabval 2796 2796nbx9 9;
#X obj 5 184 s-connect 2796nbx10 2796/out;
#X obj 210 184 s-tabval 2796 2796nbx10 10;
#X obj 5 200 s-connect 2796nbx11 2796/out;
#X obj 210 200 s-tabval 2796 2796nbx11 11;
#X obj 5 216 s-connect 2796nbx12 2796/out;
#X obj 210 216 s-tabval 2796 2796nbx12 12;
#X obj 5 232 s-connect 2796nbx13 2796/out;
#X obj 210 232 s-tabval 2796 2796nbx13 13;
#X obj 5 248 s-connect 2796nbx14 2796/out;
#X obj 210 248 s-tabval 2796 2796nbx14 14;
#X obj 5 264 s-connect 2796nbx15 2796/out;
#X obj 210 264 s-tabval 2796 2796nbx15 15;
#X obj 5 16 s-connect 3834nbx0 3834/out;
#X obj 210 16 s-tabval 3834 3834nbx0 0;
#X obj 5 32 s-connect 3834nbx1 3834/out;
#X obj 210 32 s-tabval 3834 3834nbx1 1;
#X obj 5 48 s-connect 3834nbx2 3834/out;
#X obj 210 48 s-tabval 3834 3834nbx2 2;
#X obj 5 64 s-connect 3834nbx3 3834/out;
#X obj 210 64 s-tabval 3834 3834nbx3 3;
#X obj 5 80 s-connect 3834nbx4 3834/out;
#X obj 210 80 s-tabval 3834 3834nbx4 4;
#X obj 5 96 s-connect 3834nbx5 3834/out;
#X obj 210 96 s-tabval 3834 3834nbx5 5;
#X obj 5 112 s-connect 3834nbx6 3834/out;
#X obj 210 112 s-tabval 3834 3834nbx6 6;
#X obj 5 136 s-connect 3834nbx7 3834/out;
#X obj 210 136 s-tabval 3834 3834nbx7 7;
#X obj 5 152 s-connect 3834nbx8 3834/out;
#X obj 210 152 s-tabval 3834 3834nbx8 8;
#X obj 5 168 s-connect 3834nbx9 3834/out;
#X obj 210 168 s-tabval 3834 3834nbx9 9;
#X obj 5 184 s-connect 3834nbx10 3834/out;
#X obj 210 184 s-tabval 3834 3834nbx10 10;
#X obj 5 200 s-connect 3834nbx11 3834/out;
#X obj 210 200 s-tabval 3834 3834nbx11 11;
#X obj 5 216 s-connect 3834nbx12 3834/out;
#X obj 210 216 s-tabval 3834 3834nbx12 12;
#X obj 5 232 s-connect 3834nbx13 3834/out;
#X obj 210 232 s-tabval 3834 3834nbx13 13;
#X obj 5 256 s-connect 3834nbx14 3834/out;
#X obj 210 256 s-tabval 3834 3834nbx14 14;
#X obj 5 272 s-connect 3834nbx15 3834/out;
#X obj 210 272 s-tabval 3834 3834nbx15 15;
#X obj 5 288 s-connect 3834nbx16 3834/out;
#X obj 210 288 s-tabval 3834 3834nbx16 16;
#X obj 5 304 s-connect 3834nbx17 3834/out;
#X obj 210 304 s-tabval 3834 3834nbx17 17;
#X obj 5 320 s-connect 3834nbx18 3834/out;
#X obj 210 320 s-tabval 3834 3834nbx18 18;
#X obj 5 336 s-connect 3834nbx19 3834/out;
#X obj 210 336 s-tabval 3834 3834nbx19 19;
#X obj 5 352 s-connect 3834nbx20 3834/out;
#X obj 210 352 s-tabval 3834 3834nbx20 20;
#X restore 715 9 pd \$0connectors;
#X msg 562 275 \; \$1tracker donecanvasdialog 1 -1 1 0 -1 0 \$2 80
\$2 0 0;
#X obj 828 628 table \$0data \$2;
#X obj 828 505 s-default \$2 16;
#X obj 828 527 t f b;
#X msg 828 593 \; \$2data resize \$1;
#X text 827 486 Resize the data table;
#X obj 828 572 pack f f;
#X obj 858 549 \$0;
#N canvas 212 221 507 438 save 0;
#X obj 58 10 r SSSAD_SAVE;
#X obj 53 333 list prepend;
#X obj 146 333 t l;
#X obj 30 362 list;
#X obj 30 386 outlet;
#X obj 96 112 until;
#X obj 96 135 f;
#X obj 126 135 + 1;
#X msg 141 112 0;
#X obj 58 36 t b b b b;
#X obj 96 89 16;
#X obj 112 64 s-default \$2 16;
#X obj 96 160 tabread \$0data;
#X connect 0 0 9 0;
#X connect 1 0 2 0;
#X connect 1 0 3 1;
#X connect 2 0 1 1;
#X connect 3 0 4 0;
#X connect 5 0 6 0;
#X connect 6 0 7 0;
#X connect 6 0 12 0;
#X connect 7 0 6 1;
#X connect 8 0 6 1;
#X connect 9 0 1 1;
#X connect 9 1 3 0;
#X connect 9 2 10 0;
#X connect 9 3 8 0;
#X connect 10 0 5 0;
#X connect 11 0 10 1;
#X connect 12 0 1 0;
#X restore 923 164 pd save;
#N canvas 64 35 650 643 load 0;
#X obj 40 6 inlet;
#X obj 40 65 until;
#X obj 40 92 list append;
#X obj 133 121 bang;
#X obj 40 121 list split 1;
#X obj 200 186 f;
#X obj 230 186 + 1;
#X msg 216 164 0;
#X obj 40 147 t f b;
#X obj 200 207 makefilename \$0nbx%d;
#X obj 40 32 t b l b;
#X obj 40 266 pack f s;
#X msg 40 291 \; \$2 \$1 \;;
#X connect 0 0 10 0;
#X connect 1 0 2 0;
#X connect 2 0 4 0;
#X connect 3 0 1 1;
#X connect 4 0 8 0;
#X connect 4 1 2 1;
#X connect 4 2 3 0;
#X connect 5 0 6 0;
#X connect 5 0 9 0;
#X connect 6 0 5 1;
#X connect 7 0 5 1;
#X connect 8 0 11 0;
#X connect 8 1 5 0;
#X connect 9 0 11 1;
#X connect 10 0 1 0;
#X connect 10 1 2 1;
#X connect 10 2 7 0;
#X connect 11 0 12 0;
#X restore 767 210 pd load;
#X obj 767 186 sssad/sssad \$1/sequence;
#N canvas 345 24 779 671 position 0;
#X obj 18 13 inlet;
#X obj 18 74 mod \$2;
#X obj 55 51 s-default \$2 16;
#X msg 560 118 bang;
#X obj 18 102 t f f;
#X obj 48 124 s \$0pos;
#X obj 61 14 r \$4;
#X obj 365 53 moses 0;
#X msg 409 236 \; \$1 color 1 \;;
#X obj 409 140 t a a b;
#X obj 453 174 symbol;
#X msg 453 199 \; \$1 color 944 \;;
#X msg 365 140 bang;
#X obj 365 29 r \$0pos;
#X obj 460 53 s-default \$2 16;
#X obj 409 76 moses 16;
#X obj 409 118 makefilename \$0nbx%d;
#X text 363 6 Coloration;
#X obj 34 251 r \$0/out;
#X obj 18 372 outlet;
#X obj 71 372 s \$1/value;
#X msg 48 215 \; \$1 bang \;;
#X obj 18 168 makefilename \$0nbx%d;
#X obj 18 335 f;
#X obj 18 193 t b s;
#X obj 34 274 route color;
#X obj 106 297 select bang;
#X obj 597 118 makefilename \$0nbx%d;
#X obj 567 85 - 1;
#X connect 0 0 1 0;
#X connect 1 0 4 0;
#X connect 2 0 1 1;
#X connect 3 0 10 0;
#X connect 4 0 22 0;
#X connect 4 1 5 0;
#X connect 6 0 1 0;
#X connect 7 0 12 0;
#X connect 7 1 15 0;
#X connect 9 0 8 0;
#X connect 9 1 10 1;
#X connect 9 2 10 0;
#X connect 10 0 11 0;
#X connect 12 0 10 0;
#X connect 13 0 7 0;
#X connect 14 0 15 1;
#X connect 14 0 28 0;
#X connect 15 0 16 0;
#X connect 15 1 3 0;
#X connect 16 0 9 0;
#X connect 18 0 25 0;
#X connect 22 0 24 0;
#X connect 23 0 19 0;
#X connect 23 0 20 0;
#X connect 24 0 23 0;
#X connect 24 1 21 0;
#X connect 25 1 26 0;
#X connect 26 1 23 1;
#X connect 27 0 10 1;
#X connect 28 0 27 0;
#X restore 824 381 pd position;
#X obj 824 358 inlet;
#X obj 824 404 outlet;
#X obj 394 212 t f f f f f;
#X obj 394 551 pack s s f f f;
#X msg 394 575 \; \$4tracker obj 24 \$3 nbx 3 14 0 127 0 0 \$1 \$1
\$2 -20 8 0 8 -260818 -1 -1 0 256 \; \$4connectors obj 5 \$3 s-connect
\$1 \$4/out \; \$4connectors obj 210 \$3 s-tabval \$4 \$1 \$5 \;;
#X obj 668 186 r \$1/sequence;
#X text 3 455 WATCH OUT WHEN SAVING - DYNAMIC PATCH! Delete the number
boxes.;
#X obj 497 440 * 8;
#X obj 629 165 * 8;
#X obj 450 478 makefilename;
#X connect 0 0 49 0;
#X connect 1 0 2 0;
#X connect 2 0 3 0;
#X connect 2 0 48 0;
#X connect 3 0 2 1;
#X connect 4 0 20 0;
#X connect 5 0 2 1;
#X connect 6 0 49 2;
#X connect 7 0 8 0;
#X connect 8 0 53 0;
#X connect 8 0 55 0;
#X connect 9 0 12 0;
#X connect 10 0 11 0;
#X connect 11 0 49 1;
#X connect 12 0 11 0;
#X connect 12 1 10 0;
#X connect 13 0 15 0;
#X connect 13 0 49 3;
#X connect 15 0 34 0;
#X connect 16 0 17 0;
#X connect 17 0 21 0;
#X connect 18 0 1 0;
#X connect 18 1 5 0;
#X connect 18 2 13 0;
#X connect 18 3 16 0;
#X connect 18 4 19 0;
#X connect 19 0 54 0;
#X connect 20 0 6 0;
#X connect 21 0 15 1;
#X connect 22 0 24 0;
#X connect 22 1 23 1;
#X connect 23 0 18 0;
#X connect 24 0 23 0;
#X connect 25 0 22 0;
#X connect 26 0 19 1;
#X connect 27 0 9 1;
#X connect 28 0 7 1;
#X connect 30 0 31 0;
#X connect 31 0 32 0;
#X connect 36 0 37 0;
#X connect 37 0 40 0;
#X connect 37 1 41 0;
#X connect 40 0 38 0;
#X connect 41 0 40 1;
#X connect 42 0 44 1;
#X connect 44 0 43 0;
#X connect 45 0 47 0;
#X connect 46 0 45 0;
#X connect 48 0 0 0;
#X connect 48 1 9 0;
#X connect 48 2 4 0;
#X connect 48 3 7 0;
#X connect 48 4 49 4;
#X connect 49 0 50 0;
#X connect 51 0 43 0;
#X connect 53 0 6 1;
#X connect 54 0 17 1;
#X connect 55 0 11 1;
#X coords 0 -1 1 376 80 376 1 0 0;
