#N canvas 66 101 450 300 10;
#X obj 68 73 separator;
#X obj 68 129 scaleXYZ 1.25 0 1.25;
#X obj 229 254 outlet;
#X obj 283 21 inlet;
#X obj 283 46 t a a;
#X obj 68 184 alpha 0;
#X obj 68 155 colorRGB 0.01 0.01 0.01 1;
#X obj 313 69 separator;
#X obj 68 100 translateXYZ 0.5 -2 0.5;
#X connect 0 0 8 0;
#X connect 1 0 6 0;
#X connect 3 0 4 0;
#X connect 4 0 0 0;
#X connect 4 1 7 0;
#X connect 5 0 2 0;
#X connect 6 0 5 0;
#X connect 7 0 2 0;
#X connect 8 0 1 0;
